<svg width="25" height="25" viewBox="0 0 25 25" fill="none" xmlns="http://www.w3.org/2000/svg">
<path d="M9.22974 21.7393C9.5404 21.7393 9.79224 21.4874 9.79224 21.1768C9.79224 20.8661 9.5404 20.6143 9.22974 20.6143C8.91908 20.6143 8.66724 20.8661 8.66724 21.1768C8.66724 21.4874 8.91908 21.7393 9.22974 21.7393Z" fill="#22262A" stroke="#22262A" stroke-width="2" stroke-miterlimit="10" stroke-linecap="round" stroke-linejoin="round"/>
<path d="M17.1047 21.7393C17.4154 21.7393 17.6672 21.4874 17.6672 21.1768C17.6672 20.8661 17.4154 20.6143 17.1047 20.6143C16.7941 20.6143 16.5422 20.8661 16.5422 21.1768C16.5422 21.4874 16.7941 21.7393 17.1047 21.7393Z" fill="#22262A" stroke="#22262A" stroke-width="2" stroke-miterlimit="10" stroke-linecap="round" stroke-linejoin="round"/>
<path d="M3.04224 3.73926H5.29224L7.54224 17.2393H18.7922L21.0422 7.11426H6.41724" stroke="#22262A" stroke-width="2" stroke-linecap="round" stroke-linejoin="round"/>
</svg>
