<svg width="21" height="21" viewBox="0 0 21 21" fill="none" xmlns="http://www.w3.org/2000/svg">
<path fill-rule="evenodd" clip-rule="evenodd" d="M20.8104 16.9179C20.327 15.6296 19.5858 14.4537 18.6322 13.4621C17.6786 12.4706 16.5327 11.6844 15.2648 11.1517C15.9543 10.585 16.5111 9.87372 16.8959 9.0681C17.2807 8.26247 17.4841 7.38212 17.4918 6.48921C17.4669 4.92436 16.8634 3.42429 15.7979 2.27875C14.7323 1.13321 13.2804 0.423482 11.7226 0.286716C11.2124 0.223438 10.6965 0.223438 10.1863 0.286716C8.62937 0.424651 7.17864 1.13489 6.11415 2.28031C5.04967 3.42573 4.44685 4.92515 4.42206 6.48921C4.42948 7.38216 4.63279 8.26259 5.0176 9.06825C5.40242 9.87392 5.95939 10.5852 6.64909 11.1517C5.3809 11.6842 4.23474 12.4703 3.28092 13.4618C2.32709 14.4534 1.5857 15.6294 1.10219 16.9179C0.965799 17.2947 0.925311 17.6995 0.984406 18.0958C1.0435 18.4921 1.20032 18.8675 1.44067 19.1879C1.69008 19.5171 2.01278 19.7835 2.38311 19.966C2.75344 20.1485 3.16122 20.2421 3.574 20.2392H18.3486C18.761 20.242 19.1684 20.1484 19.5383 19.9659C19.9082 19.7834 20.2305 19.517 20.4795 19.1879C20.7192 18.8671 20.875 18.4914 20.9328 18.095C20.9906 17.6986 20.9485 17.294 20.8104 16.9179ZM7.03628 6.48921C7.05355 5.54142 7.42368 4.63419 8.07425 3.9452C8.72481 3.2562 9.60893 2.83505 10.5535 2.76421C10.8227 2.73087 11.0949 2.73087 11.3641 2.76421C12.0745 2.87321 12.7388 3.18379 13.2782 3.65909C13.8176 4.1344 14.2095 4.75451 14.4075 5.44593C14.6054 6.13735 14.6012 6.87108 14.3952 7.56015C14.1891 8.24922 13.79 8.86473 13.2452 9.33372C12.7003 9.8027 12.0325 10.1055 11.3209 10.2062C10.6093 10.3069 9.88369 10.2013 9.23022 9.90195C8.57675 9.60258 8.02277 9.12198 7.63392 8.5171C7.24506 7.91223 7.03766 7.20846 7.03628 6.48921ZM3.57148 17.7392C4.16342 16.263 5.18335 14.998 6.49994 14.107C7.81652 13.2161 9.36949 12.7399 10.9588 12.7399C12.5482 12.7399 14.1011 13.2161 15.4177 14.107C16.7343 14.998 17.7542 16.263 18.3461 17.7392H3.574H3.57148Z" fill="#22262A"/>
</svg>
