<svg width="22" height="22" viewBox="0 0 22 22" fill="none" xmlns="http://www.w3.org/2000/svg">
<path fill-rule="evenodd" clip-rule="evenodd" d="M20.7072 19.4571L14.3992 13.1201C15.5309 11.5139 16.018 9.54131 15.764 7.59298C15.51 5.64465 14.5335 3.86282 13.0278 2.60048C11.5222 1.33815 9.59726 0.687421 7.6345 0.777243C5.67174 0.867064 3.81434 1.69083 2.43027 3.08541C1.0462 4.47999 0.236448 6.34358 0.161474 8.30697C0.0865002 10.2703 0.751771 12.1903 2.02546 13.6864C3.29914 15.1824 5.08833 16.1455 7.03852 16.3847C8.98871 16.624 10.9576 16.1219 12.5552 14.9781L18.8632 21.3161C18.9845 21.4401 19.1293 21.5387 19.2891 21.6062C19.4489 21.6737 19.6206 21.7088 19.7941 21.7094C19.9676 21.71 20.1394 21.6761 20.2997 21.6096C20.46 21.5432 20.6054 21.4456 20.7276 21.3225C20.8498 21.1993 20.9464 21.0531 21.0116 20.8924C21.0768 20.7316 21.1094 20.5595 21.1075 20.386C21.1056 20.2125 21.0692 20.0412 21.0005 19.8819C20.9317 19.7226 20.832 19.5785 20.7072 19.4581V19.4571ZM8.01816 13.8151C6.97721 13.8208 5.95798 13.5174 5.08967 12.9433C4.22135 12.3691 3.54303 11.5501 3.14069 10.59C2.73835 9.62998 2.6301 8.57204 2.82966 7.55037C3.02921 6.52871 3.5276 5.58933 4.26163 4.85122C4.99567 4.11311 5.93231 3.60952 6.95286 3.40432C7.9734 3.19911 9.03189 3.30155 9.99418 3.69857C10.9565 4.09559 11.7792 4.76935 12.3581 5.63448C12.9371 6.49961 13.2461 7.5171 13.2462 8.55807C13.2462 9.9473 12.6963 11.2801 11.7167 12.2652C10.7371 13.2502 9.40738 13.8074 8.01816 13.8151V13.8151Z" fill="#22262A"/>
</svg>
